PathFileType	4	(X/Y/Z)	C:\Users\Basilio\Documents\Thesis Gigler\squatting_fais\c3dfiles\038\SJ_pre2\markers_experimental.trc
DataRate	CameraRate	NumFrames	NumMarkers	Units	OrigDataRate	OrigDataStartFrame	OrigNumFrames
200.000000	200.000000	4	61	mm	200.000000	0	1854
Frame#	Time	FHD			LBHD			RBHD			C7			T10			LSHO			LUUPA			LMUPA			LDUPA			LLEP			LMEP			LRAD			LUL			LRFIN			RSHO			RUPA1			RMUPA			RDUPA			RLEP			RMEP			RRAD			RUL			RUFIN			LASI			RASI			USACR			LSACR			RSACR			LTHI1			LTHI2			LTHI3			LTHI4			LLFC			LMFC			LTIB1			LTIB2			LTIB3			LTIB4			LLMAL			LMMAL			LHEE			LMT1			LMT2			LMT5			RTHI			RTHI2			RTHI3			RTHI4			RLFC			RMFC			RTIB1			RTIB2			RTIB3			RTIB4			RLMAL			RMMAL			RHEE			RMT1			RMT2			RMT5			CLAV			
		X1	Y1	Z1	X2	Y2	Z2	X3	Y3	Z3	X4	Y4	Z4	X5	Y5	Z5	X6	Y6	Z6	X7	Y7	Z7	X8	Y8	Z8	X9	Y9	Z9	X10	Y10	Z10	X11	Y11	Z11	X12	Y12	Z12	X13	Y13	Z13	X14	Y14	Z14	X15	Y15	Z15	X16	Y16	Z16	X17	Y17	Z17	X18	Y18	Z18	X19	Y19	Z19	X20	Y20	Z20	X21	Y21	Z21	X22	Y22	Z22	X23	Y23	Z23	X24	Y24	Z24	X25	Y25	Z25	X26	Y26	Z26	X27	Y27	Z27	X28	Y28	Z28	X29	Y29	Z29	X30	Y30	Z30	X31	Y31	Z31	X32	Y32	Z32	X33	Y33	Z33	X34	Y34	Z34	X35	Y35	Z35	X36	Y36	Z36	X37	Y37	Z37	X38	Y38	Z38	X39	Y39	Z39	X40	Y40	Z40	X41	Y41	Z41	X42	Y42	Z42	X43	Y43	Z43	X44	Y44	Z44	X45	Y45	Z45	X46	Y46	Z46	X47	Y47	Z47	X48	Y48	Z48	X49	Y49	Z49	X50	Y50	Z50	X51	Y51	Z51	X52	Y52	Z52	X53	Y53	Z53	X54	Y54	Z54	X55	Y55	Z55	X56	Y56	Z56	X57	Y57	Z57	X58	Y58	Z58	X59	Y59	Z59	X60	Y60	Z60	X61	Y61	Z61	

1	0	-110.0626983642578	1574.43798828125	-1025.252319335938	-261.1351013183594	1660.9521484375	-1019.132263183594	-206.0312500000001	1634.760498046875	-885.5771484375002	-400.421112060547	1538.391479492188	-915.546813964844	-477.1038513183595	1246.668579101563	-896.8836059570315	-359.2991638183594	1501.886962890625	-1094.7353515625	-441.9468383789064	1342.091186523438	-1254.420654296875	-397.5919189453126	1316.9619140625	-1255.410400390625	-430.888397216797	1285.123291015625	-1293.930053710938	-417.6638488769532	1224.971557617188	-1317.011474609375	-485.2672729492189	1192.749267578125	-1280.722900390625	-336.2256469726563	1004.690673828125	-1140.384399414063	-309.7509155273438	971.3627929687502	-1200.760986328125	-298.8528442382813	964.3378906250002	-1090.173828125	-286.2153625488282	1512.046508789063	-769.4008789062502	-302.7638549804688	1363.332885742188	-597.1693725585939	-288.2919311523438	1318.528686523438	-611.1988525390626	-308.0736083984376	1308.126831054688	-555.2402343750001	-307.5278320312501	1235.85986328125	-526.6461791992189	-391.0557861328126	1228.759033203125	-526.8988647460939	-354.0935363769532	998.5057373046877	-666.3067626953126	-303.2276000976563	968.7709960937502	-624.8138427734376	-311.9395141601563	983.1839599609377	-721.2218017578126	-309.8300170898438	1041.588012695313	-1017.78466796875	-319.4009399414063	1054.53369140625	-766.4575195312501	-483.2469787597657	1091.7958984375	-896.953308105469	-495.3353576660157	1061.8271484375	-923.142517089844	-497.4725646972657	1064.120361328125	-867.8769531250002	-366.9952392578126	730.0211791992189	-1103.203735351563	-338.1788330078126	649.8836059570314	-1106.698852539063	-290.2619018554688	651.6052856445314	-1088.597290039063	-366.8340454101563	599.4694824218751	-1090.210693359375	-363.4257202148438	539.3785400390626	-1090.944091796875	-335.0560913085938	511.6439819335939	-976.9564208984377	-329.3541870117188	341.7190246582032	-1056.76953125	-383.5372924804688	312.5684509277344	-1122.65283203125	-346.4400634765626	302.4800720214844	-1098.497680664063	-356.8540344238282	218.5015716552735	-1083.021484375	-448.4489746093751	86.91174316406251	-1113.653564453125	-399.7819213867189	95.8827590942383	-1048.213745117188	-486.0679321289064	43.48582077026368	-1062.220825195313	-277.5220642089844	46.95653152465821	-1093.6591796875	-279.9944763183594	50.54139328002931	-1144.631225585938	-328.0244750976563	30.29213333129884	-1184.750610351563	-387.8962707519532	785.5258789062502	-702.9368286132814	-354.0406494140626	728.3037109375001	-691.8052368164064	-321.0810546875001	728.1180419921876	-692.5748291015626	-383.2896728515626	649.2916259765626	-712.8554077148439	-370.6717529296876	512.9636840820314	-713.4226684570314	-356.3611145019532	506.5131835937501	-833.0068969726565	-327.1168823242188	334.8429260253907	-726.9961547851564	-408.4789123535157	257.3794860839844	-694.7393798828126	-360.7616577148438	259.5695800781251	-700.7892456054689	-347.5250244140626	207.6365966796876	-725.7258911132814	-418.2550354003907	90.02549743652345	-701.1510620117189	-376.8147583007813	91.89886474609376	-774.644714355469	-463.943084716797	39.77183151245118	-770.726013183594	-251.9916229248047	49.23511886596681	-715.6300659179689	-265.2045288085938	53.90543365478517	-670.6851806640626	-316.1019287109376	34.68437957763673	-634.5040283203126	nan	nan	nan	
2	0.005	-110.0587692260742	1574.479614257813	-1025.891479492188	-261.1699829101563	1660.968139648438	-1019.484802246094	-205.8693389892579	1634.77001953125	-886.0308227539065	-400.369598388672	1538.356567382813	-915.7500000000002	-476.8538208007814	1246.560668945313	-896.9829711914065	-359.4531555175782	1501.776245117188	-1095.009643554688	-442.3777160644532	1342.06201171875	-1254.622924804688	-398.2113342285157	1316.4931640625	-1255.744873046875	-431.3615112304689	1285.135375976563	-1294.19921875	-418.1121520996095	1224.976440429688	-1317.196166992188	-485.6412048339845	1192.672607421875	-1280.838745117188	-336.2940673828126	1005.119506835938	-1140.526977539063	-309.2026977539063	971.3791503906252	-1200.741577148438	-298.6055603027344	964.6971435546877	-1090.386474609375	-285.9491577148438	1512.11376953125	-769.7171630859377	-302.4380187988282	1363.423583984375	-597.3229980468751	-287.9174194335938	1318.653442382813	-611.4683837890626	-307.6182250976563	1308.252075195313	-555.5700073242189	-307.0184936523438	1235.942260742188	-527.0490112304689	-390.4971008300782	1228.81201171875	-527.0940551757814	-353.6147460937501	998.5510253906252	-666.5215454101564	-302.5420532226563	968.842956542969	-625.1429443359376	-311.3929748535157	983.2403564453127	-721.5265502929689	-309.4340209960938	1041.600463867188	-1018.051513671875	-318.6424255371094	1054.612060546875	-766.7796020507814	-482.7157287597657	1091.675048828125	-897.085632324219	-494.8025512695314	1061.713745117188	-923.2847290039065	-496.8335571289064	1064.065185546875	-867.9577636718752	-366.6369934082032	730.0411987304689	-1103.386108398438	-337.8381347656251	649.8925170898439	-1106.908813476563	-290.9755554199219	651.9959716796876	-1088.732055664063	-366.5522766113282	599.4890747070314	-1090.411376953125	-363.0614624023438	539.3030395507814	-1091.15234375	-334.7539672851563	511.555633544922	-977.076110839844	-329.0798034667969	341.7053222656251	-1056.932006835938	-383.4559326171876	312.5431213378907	-1122.804443359375	-346.3320007324219	302.4536132812501	-1098.706176757813	-356.7417297363282	218.4566345214844	-1083.081420898438	-448.3645019531251	86.90473937988283	-1113.670532226563	-399.7385864257814	95.8989715576172	-1048.22998046875	-486.0679016113282	43.48579406738282	-1062.220825195313	-277.5156555175782	46.92949295043946	-1093.729614257813	-280.0151062011719	50.53821182250978	-1144.671508789063	-327.9876403808594	30.2524642944336	-1184.756591796875	-387.4504699707032	785.5454711914065	-703.0573120117189	-353.5614318847657	728.3388671875001	-692.0941162109376	-320.6244201660157	728.0498046875001	-692.8273925781251	-382.8814392089844	649.2941894531251	-713.0142211914064	-370.3224182128907	512.9714965820314	-713.5658569335939	-356.1133422851563	506.4979553222657	-833.1491699218752	-326.9101257324219	334.8275756835938	-727.1237792968751	-408.3595581054689	257.3982849121094	-694.8106079101564	-360.6271057128907	259.5665588378907	-700.8349609375001	-347.4131164550782	207.6163482666016	-725.8184204101564	-418.2186889648439	90.05309295654298	-701.1724853515626	-376.8522033691407	91.89013671875001	-774.681823730469	-463.8765563964845	39.7354965209961	-770.721374511719	-251.9853820800782	49.23664474487306	-715.6044921875001	-265.2045898437501	53.90483474731447	-670.6849975585939	-316.1177368164063	34.66188049316407	-634.4981689453126	nan	nan	nan	
3	0.01	-110.1218032836914	1574.52880859375	-1026.491455078125	-261.0040893554688	1661.5166015625	-1019.772644042969	-205.6603088378907	1634.781860351563	-886.4417114257815	-400.298797607422	1538.345703125	-915.904479980469	-476.5615844726564	1246.464111328125	-897.1213378906252	-359.5799255371094	1501.69921875	-1095.235229492188	-442.8079833984376	1342.036743164063	-1254.8095703125	-398.5399169921876	1316.51611328125	-1256.047973632813	-431.7441711425782	1285.1064453125	-1294.436767578125	-418.5786743164064	1225.0009765625	-1317.42236328125	-486.0043029785157	1192.651000976563	-1280.930908203125	-336.1901550292969	1005.557739257813	-1140.62939453125	-309.4990234375001	972.1813964843752	-1200.894775390625	-298.3744201660157	965.023864746094	-1090.454467773438	-285.7430419921876	1512.179321289063	-770.070495605469	-302.1152343750001	1363.5556640625	-597.5961303710939	-287.6024475097657	1318.752563476563	-611.6998291015626	-307.1413269042969	1308.349731445313	-555.8265380859376	-306.5547180175782	1236.089233398438	-527.4174194335939	-389.9797668457032	1228.798217773438	-527.2990722656251	-353.0869445800782	998.5823364257815	-666.7200927734376	-302.0234985351563	968.8693847656252	-625.3096923828126	-310.2438049316407	983.4905395507815	-721.3357543945314	-309.0554809570313	1041.634521484375	-1018.368835449219	-318.1794128417969	1054.605712890625	-766.9735107421876	-482.2281188964845	1091.562866210938	-897.2239379882815	-494.3010253906251	1061.606201171875	-923.4299316406252	-496.3822326660157	1063.951171875	-868.1038208007815	-366.3891296386719	730.0211181640626	-1103.528564453125	-337.6178588867188	649.8798217773439	-1107.180419921875	-290.6495361328126	651.9626464843751	-1088.98095703125	-366.2321166992188	599.4879760742189	-1090.575439453125	-362.8020324707032	539.2602539062501	-1091.333374023438	-334.2038269042969	511.5737609863282	-977.3447875976565	-328.8287658691407	341.7165832519532	-1057.146362304688	-383.3420715332032	312.5216064453126	-1122.885131835938	-346.1444702148438	302.3791198730469	-1098.826538085938	-356.6755371093751	218.4228210449219	-1083.15087890625	-448.3765258789064	86.88610076904298	-1113.696166992188	-399.1263732910157	96.27471923828128	-1047.791625976563	-486.0802307128907	43.46663284301759	-1062.218139648438	-277.5523376464844	46.9170150756836	-1093.685302734375	-279.9853210449219	50.53841781616212	-1144.717041015625	-328.0110778808594	30.26035881042481	-1184.763305664063	-386.9317016601564	785.5215454101565	-703.2966918945314	-353.0672912597657	728.3007202148439	-692.3263549804689	-320.1022644042969	728.0330200195314	-693.0673828125001	-382.4226379394532	649.2884521484376	-713.1817626953126	-369.9881591796876	512.9567260742189	-713.7501831054689	-355.8933105468751	506.4621887207032	-833.295593261719	-326.7593688964844	334.7521667480469	-727.2253417968751	-408.2189025878907	257.4264526367188	-694.8588256835939	-360.4930114746094	259.5560607910157	-700.9185180664064	-347.3202514648438	207.5887298583985	-725.8391113281251	-418.2053527832032	90.05901336669923	-701.2192993164064	-376.7926330566407	91.88485717773439	-774.7341918945315	-463.9312133789064	39.7901954650879	-770.6719360351565	-252.0066223144532	49.27193450927736	-715.6290283203126	-265.2044372558594	53.8969192504883	-670.6642456054689	-316.1142272949219	34.65621948242188	-634.5192871093751	nan	nan	nan	
4	0.015	-110.1877746582032	1574.621337890625	-1026.995727539063	-261.2540588378907	1660.997314453125	-1020.253051757813	-205.5772247314454	1634.833251953125	-886.8579711914065	-400.2472229003907	1538.340576171875	-916.0911865234377	-476.1832885742189	1246.317626953125	-897.2197875976565	-359.7623901367188	1501.61279296875	-1095.45361328125	-443.1900329589845	1342.028076171875	-1255.03466796875	-398.696990966797	1316.996215820313	-1256.259033203125	-432.2250366210939	1285.103271484375	-1294.65576171875	-419.0517883300782	1225.055908203125	-1317.717407226563	-486.3294677734376	1192.583984375	-1281.104370117188	-336.5270690917969	1006.647033691406	-1140.765258789063	-309.3648986816407	972.6002197265627	-1200.95849609375	-298.0769348144532	965.4592285156252	-1090.501708984375	-285.4522399902344	1512.244384765625	-770.4632568359377	-301.7517089843751	1363.73193359375	-597.9404296875001	-287.1749877929688	1318.868286132813	-611.8786621093751	-306.8408813476563	1308.474731445313	-555.9722900390626	-306.0055541992188	1236.2060546875	-527.6809082031251	-389.5954895019532	1228.876708984375	-527.5102539062501	-352.4916076660157	998.6502075195315	-666.9465942382814	-301.4699096679688	968.9095458984377	-625.5285034179689	-309.6793823242188	983.540710449219	-721.4746093750001	-308.5988159179688	1041.647094726563	-1018.614624023438	-317.6372680664063	1054.640380859375	-767.2572021484376	-481.7781066894532	1091.469604492188	-897.368103027344	-493.8591308593751	1061.501708984375	-923.5638427734377	-495.9599914550782	1063.834838867188	-868.2952270507815	-365.9931945800782	730.0354614257814	-1103.729125976563	-337.2498474121094	649.8862304687501	-1107.435180664063	-290.3047485351563	651.9132690429689	-1089.36376953125	-365.9664611816407	599.4674682617189	-1090.759765625	-362.5357971191407	539.2244262695314	-1091.474731445313	-333.7174072265626	511.5753784179689	-977.6712036132815	-328.6590881347657	341.6485595703126	-1057.328491210938	-383.2424926757813	312.4929809570313	-1122.9892578125	-346.0186157226563	302.3115234375001	-1099.006958007813	-356.5746765136719	218.3903808593751	-1083.201904296875	-448.3746032714845	86.90459442138673	-1113.704833984375	-399.0703735351564	96.28649902343753	-1047.853759765625	-486.0739135742189	43.47280502319337	-1062.177978515625	-277.5428161621094	46.92655944824219	-1093.752685546875	-279.9757690429688	50.5087013244629	-1144.716918945313	-328.0477600097657	30.24925422668458	-1184.772827148438	-386.355926513672	785.517517089844	-703.5081176757814	-352.5648193359376	728.2785034179689	-692.5683593750001	-319.6613159179688	728.0155029296876	-693.3181762695314	-381.9299316406251	649.3262939453126	-713.2538452148439	-369.6795959472657	512.9554443359376	-713.9040527343751	-355.6197204589844	506.3894042968751	-833.392517089844	-326.5444946289063	334.7387084960938	-727.3424072265626	-408.0569152832032	257.4526977539063	-694.9540405273439	-360.3210449218751	259.5399780273438	-701.0220947265626	-347.2380676269532	207.5916137695313	-725.9291381835939	-418.1505737304689	90.08596801757814	-701.2211303710939	-376.7696533203126	91.86122894287111	-774.7559204101565	-463.8942871093751	39.78408813476563	-770.692321777344	-251.9658508300782	49.27714157104494	-715.6013793945314	-265.1849670410157	53.87806320190431	-670.6679687500001	-316.1243286132813	34.63528060913087	-634.4851684570314	nan	nan	nan	
